<svg width="460" height="120" viewBox="0 0 460 120" fill="none" xmlns="http://www.w3.org/2000/svg">
  <defs>
    <linearGradient id="bg" x1="0" y1="0" x2="460" y2="120" gradientUnits="userSpaceOnUse">
      <stop stop-color="#FFF5F5"/>
      <stop offset="1" stop-color="#FFFFFF"/>
    </linearGradient>
    <linearGradient id="redMain" x1="0" y1="0" x2="1" y2="1">
      <stop stop-color="#D7263D"/>
      <stop offset="1" stop-color="#B8122A"/>
    </linearGradient>
    <linearGradient id="accent" x1="0" y1="0" x2="1" y2="0">
      <stop stop-color="#E53935"/>
      <stop offset="1" stop-color="#C21807"/>
    </linearGradient>
  </defs>

  <rect x="2" y="2" width="456" height="116" rx="22" fill="url(#bg)"/>
  <rect x="2" y="2" width="456" height="116" rx="22" stroke="#F1B5BC" stroke-width="3"/>

  <circle cx="66" cy="60" r="42" fill="white" stroke="#E8A3AB" stroke-width="2"/>
  <circle cx="66" cy="60" r="39" fill="#FFF9FA" stroke="#F4C5CB"/>

  <path d="M27 60H105" stroke="#D98994" stroke-width="1.8"/>
  <path d="M31 45H101" stroke="#DE9AA3" stroke-opacity="0.9" stroke-width="1.5"/>
  <path d="M31 75H101" stroke="#DE9AA3" stroke-opacity="0.9" stroke-width="1.5"/>
  <path d="M38 33H94" stroke="#E4AFB6" stroke-opacity="0.75" stroke-width="1.3"/>
  <path d="M38 87H94" stroke="#E4AFB6" stroke-opacity="0.75" stroke-width="1.3"/>

  <path d="M66 21V99" stroke="#D98994" stroke-width="1.7"/>
  <path d="M52 25C55 40 55 80 52 95" stroke="#E4AFB6" stroke-width="1.3"/>
  <path d="M80 25C77 40 77 80 80 95" stroke="#E4AFB6" stroke-width="1.3"/>

  <text x="41" y="72" fill="url(#redMain)" font-family="Inter, Arial, sans-serif" font-size="40" font-weight="900" font-style="italic">UIF</text>

  <text x="276" y="58" text-anchor="middle" fill="#C4182D" font-family="Inter, Arial, sans-serif" font-size="48" font-weight="850" letter-spacing="1.2">UNITEX</text>
  <text x="276" y="90" text-anchor="middle" fill="#D12A3F" font-family="Inter, Arial, sans-serif" font-size="30" font-weight="750" letter-spacing="4">汇 利 达</text>

  <rect x="18" y="102" width="424" height="6" rx="3" fill="url(#accent)"/>
</svg>
