<svg width="460" height="120" viewBox="0 0 460 120" fill="none" xmlns="http://www.w3.org/2000/svg">
  <defs>
    <linearGradient id="bg" x1="0" y1="0" x2="460" y2="120" gradientUnits="userSpaceOnUse">
      <stop stop-color="#EFF5FF"/>
      <stop offset="1" stop-color="#FFFFFF"/>
    </linearGradient>
    <linearGradient id="navy" x1="0" y1="0" x2="1" y2="1">
      <stop stop-color="#1E4E97"/>
      <stop offset="1" stop-color="#0C2E61"/>
    </linearGradient>
    <linearGradient id="accent" x1="0" y1="0" x2="1" y2="0">
      <stop stop-color="#2F80ED"/>
      <stop offset="1" stop-color="#F29A2E"/>
    </linearGradient>
  </defs>

  <rect x="2" y="2" width="456" height="116" rx="22" fill="url(#bg)"/>
  <rect x="2" y="2" width="456" height="116" rx="22" stroke="#C8DAF4" stroke-width="3"/>

  <circle cx="66" cy="60" r="42" fill="white" stroke="#A9C5ED" stroke-width="2"/>
  <circle cx="66" cy="60" r="39" fill="#F7FBFF" stroke="#D2E3F9"/>

  <path d="M27 60H105" stroke="#7DA7DE" stroke-width="1.8"/>
  <path d="M31 45H101" stroke="#8EB3E3" stroke-opacity="0.9" stroke-width="1.5"/>
  <path d="M31 75H101" stroke="#8EB3E3" stroke-opacity="0.9" stroke-width="1.5"/>
  <path d="M38 33H94" stroke="#9ABCE7" stroke-opacity="0.75" stroke-width="1.3"/>
  <path d="M38 87H94" stroke="#9ABCE7" stroke-opacity="0.75" stroke-width="1.3"/>

  <path d="M66 21V99" stroke="#7DA7DE" stroke-width="1.7"/>
  <path d="M52 25C55 40 55 80 52 95" stroke="#9ABCE7" stroke-width="1.3"/>
  <path d="M80 25C77 40 77 80 80 95" stroke="#9ABCE7" stroke-width="1.3"/>

  <text x="41" y="72" fill="url(#navy)" font-family="Inter, Arial, sans-serif" font-size="40" font-weight="900" font-style="italic">UIF</text>

  <text x="120" y="58" fill="#123B78" font-family="Inter, Arial, sans-serif" font-size="48" font-weight="850" letter-spacing="1.2">UNITEX</text>
  <text x="121" y="90" fill="#2A5A98" font-family="Inter, Arial, sans-serif" font-size="30" font-weight="750" letter-spacing="4">汇 利 达</text>

  <rect x="18" y="102" width="424" height="6" rx="3" fill="url(#accent)"/>
</svg>
